<svg width="42" height="56" fill="none" xmlns="http://www.w3.org/2000/svg"><path d="M38.5 0h-35A3.5 3.5 0 000 3.5v49A3.5 3.5 0 003.5 56h35a3.5 3.5 0 003.5-3.5v-49A3.5 3.5 0 0038.5 0zm-35 52.5v-49h35v49h-35z" fill="#000"/><path d="M10.5 10.5h23.922V7H8.75A1.75 1.75 0 007 8.75v8.172h3.5V10.5zm0 14H7V28h7v-7h-3.5v3.5zm21 0H28V28h7v-7h-3.5v3.5zm-10.5 0h-3.5V28h7v-7H21v3.5zM10.5 35H7v3.5h7v-7h-3.5V35zm21 0H28v3.5h7v-7h-3.5V35zM21 35h-3.5v3.5h7v-7H21V35zM10.5 45.5H7V49h7v-7h-3.5v3.5zm21 0H28V49h7v-7h-3.5v3.5zm-10.5 0h-3.5V49h7v-7H21v3.5z" fill="#000"/><path d="M18.5 28H18v1h.5v-1zm6 1h.5v-1h-.5v1zm-6-4H18v1h.5v-1zm2 1h.5v-1h-.5v1zm4-4.5l.354-.354-.147-.146H24.5v.5zm3 3h.5v-.207l-.146-.147-.354.354zM22 32l-.354.354L22 32zm-.5.5l.224.447.04-.02.036-.027-.3-.4zm-3-3.5h6v-1h-6v1zm0-3h2v-1h-2v1zm8 9h-10v1h10v-1zM16 34.5v-12h-1v12h1zm.5-12.5h8v-1h-8v1zM27 24.5v10h1v-10h-1zm-2.854-2.646l3 3 .708-.708-3-3-.708.708zM16.5 35a.5.5 0 01-.5-.5h-1a1.5 1.5 0 001.5 1.5v-1zm10 1a1.5 1.5 0 001.5-1.5h-1a.5.5 0 01-.5.5v1zM16 22.5a.5.5 0 01.5-.5v-1a1.5 1.5 0 00-1.5 1.5h1zm3.474 10.158c.111-.333.427-.642.83-.75.377-.101.862-.035 1.342.446l.708-.708c-.72-.72-1.569-.903-2.309-.704-.713.192-1.297.733-1.52 1.4l.95.316h-.001zm2.172-.304a.944.944 0 01.079.087l.79-.614a1.95 1.95 0 00-.161-.18l-.708.707zm.079.087c.078.1.06.132.063.11.002-.014.006.009-.054.063a1 1 0 01-.29.169 1.784 1.784 0 01-.394.108.849.849 0 01-.25.01c-.017-.004.018 0 .07.037a.388.388 0 01.131.43.21.21 0 01-.023.047c-.002.002.015-.02.072-.067.114-.092.324-.226.674-.4l-.448-.895c-.377.188-.66.36-.854.517a1.373 1.373 0 00-.26.267.705.705 0 00-.14.438.61.61 0 00.255.468c.113.084.238.12.33.139.187.037.4.027.593-.002.38-.058.872-.222 1.207-.526.174-.159.339-.387.374-.686.036-.306-.074-.593-.267-.84l-.79.613h.001zm.075.459a2.56 2.56 0 01.518-.307l-.397-.918c-.24.104-.48.245-.721.425l.6.8zm.518-.307c.65-.281 1.231-.133 1.826.15.15.072.296.15.444.23.144.078.296.161.44.235.276.139.618.292.972.292v-1c-.094 0-.248-.047-.52-.184-.128-.066-.262-.14-.416-.223-.15-.081-.316-.17-.49-.252-.698-.333-1.611-.616-2.653-.166l.397.918z" fill="#000"/></svg>