<svg width="185" height="77" fill="none" xmlns="http://www.w3.org/2000/svg"><path fill-rule="evenodd" clip-rule="evenodd" d="M22.336 24.312c-1.877-1.024-4.075-1.536-6.592-1.536-2.944 0-5.61.747-8 2.24-2.39 1.493-4.288 3.627-5.696 6.4C.683 34.189 0 37.411 0 41.08c0 3.67.683 6.912 2.048 9.728 1.408 2.773 3.307 4.928 5.696 6.464 2.39 1.493 5.056 2.24 8 2.24 2.517 0 4.715-.512 6.592-1.536 1.877-1.067 3.35-2.432 4.416-4.096v5.056c0 2.859-.683 4.928-2.048 6.208-1.323 1.323-3.115 1.984-5.376 1.984-1.877 0-3.456-.405-4.736-1.216-1.28-.768-2.09-1.835-2.432-3.2H1.344c.47 4.267 2.347 7.637 5.632 10.112 3.285 2.517 7.573 3.776 12.864 3.776 3.968 0 7.275-.79 9.92-2.368 2.688-1.579 4.672-3.712 5.952-6.4 1.323-2.645 1.984-5.61 1.984-8.896V23.288H26.752v5.056c-1.024-1.664-2.496-3.008-4.416-4.032zm2.112 10.368c1.536 1.579 2.304 3.733 2.304 6.464 0 2.73-.768 4.885-2.304 6.464-1.493 1.579-3.328 2.368-5.504 2.368-2.176 0-4.032-.79-5.568-2.368-1.493-1.621-2.24-3.797-2.24-6.528 0-2.73.747-4.864 2.24-6.4 1.536-1.579 3.392-2.368 5.568-2.368 2.176 0 4.01.79 5.504 2.368zm21.934-16.768c1.237 1.11 2.816 1.664 4.736 1.664 1.877 0 3.413-.555 4.607-1.664 1.238-1.152 1.856-2.56 1.856-4.224 0-1.707-.618-3.115-1.856-4.224-1.194-1.152-2.73-1.728-4.608-1.728-1.92 0-3.498.576-4.735 1.728-1.195 1.11-1.792 2.517-1.792 4.224 0 1.664.597 3.072 1.791 4.224zM45.614 59h10.944V23.288H45.613V59zM64.36 31.416c-1.366 2.773-2.049 5.995-2.049 9.664 0 3.67.683 6.912 2.049 9.728 1.407 2.773 3.306 4.928 5.695 6.464 2.39 1.493 5.056 2.24 8 2.24 2.518 0 4.715-.512 6.593-1.536 1.92-1.024 3.391-2.39 4.415-4.096V59h10.944V21.793L94.716 16.5l-4.86-4.86h-.791v16.576c-1.11-1.664-2.646-2.987-4.608-3.968-1.92-.981-4.054-1.472-6.4-1.472-2.945 0-5.611.747-8 2.24-2.39 1.493-4.288 3.627-5.697 6.4zm22.4 3.264c1.535 1.579 2.303 3.733 2.303 6.464 0 2.73-.767 4.885-2.303 6.464-1.494 1.579-3.328 2.368-5.504 2.368-2.177 0-4.032-.79-5.569-2.368-1.493-1.621-2.24-3.797-2.24-6.528 0-2.73.747-4.864 2.24-6.4 1.537-1.579 3.392-2.368 5.569-2.368 2.175 0 4.01.79 5.503 2.368zm18.829 23.888c.464.416 1.056.624 1.776.624.704 0 1.28-.208 1.728-.624.464-.432.696-.96.696-1.584 0-.64-.232-1.176-.696-1.608-.448-.432-1.024-.648-1.728-.648-.72 0-1.312.216-1.776.648-.448.432-.672.968-.672 1.608 0 .624.224 1.152.672 1.584zm14.189-12.576c-.704-.384-1.528-.576-2.472-.576-1.104 0-2.104.28-3 .84-.896.56-1.608 1.36-2.136 2.4-.512 1.04-.768 2.248-.768 3.624s.256 2.592.768 3.648c.528 1.04 1.24 1.848 2.136 2.424.896.56 1.896.84 3 .84.944 0 1.768-.192 2.472-.576.704-.4 1.256-.912 1.656-1.536v1.896c0 1.072-.256 1.848-.768 2.328-.496.496-1.168.744-2.016.744-.704 0-1.296-.152-1.776-.456-.48-.288-.784-.688-.912-1.2h-4.056c.176 1.6.88 2.864 2.112 3.792 1.232.944 2.84 1.416 4.824 1.416 1.488 0 2.728-.296 3.72-.888 1.008-.592 1.752-1.392 2.232-2.4.496-.992.744-2.104.744-3.336V45.608h-4.104v1.896c-.384-.624-.936-1.128-1.656-1.512zm.792 3.888c.576.592.864 1.4.864 2.424s-.288 1.832-.864 2.424a2.73 2.73 0 01-2.064.888c-.816 0-1.512-.296-2.088-.888-.56-.608-.84-1.424-.84-2.448s.28-1.824.84-2.4c.576-.592 1.272-.888 2.088-.888a2.73 2.73 0 012.064.888zm13.842-3.768a5.291 5.291 0 00-1.8 1.728v-2.232h-4.105V59h4.105v-6.216c0-1.104.255-1.872.767-2.304.513-.448 1.281-.672 2.304-.672h1.128v-4.344c-.88 0-1.679.216-2.399.648zm6.905 12.24c1.056.56 2.24.84 3.552.84 1.312 0 2.496-.28 3.552-.84a6.172 6.172 0 002.52-2.4c.624-1.056.936-2.272.936-3.648 0-1.376-.304-2.584-.912-3.624a6.166 6.166 0 00-2.496-2.424c-1.056-.56-2.24-.84-3.552-.84-1.312 0-2.496.28-3.552.84a6.166 6.166 0 00-2.496 2.424c-.608 1.04-.912 2.248-.912 3.624 0 1.392.296 2.608.888 3.648a6.253 6.253 0 002.472 2.4zm5.544-3.576a2.636 2.636 0 01-1.992.864c-.784 0-1.44-.288-1.968-.864-.512-.576-.768-1.4-.768-2.472 0-1.088.264-1.912.792-2.472.528-.576 1.192-.864 1.992-.864.784 0 1.44.288 1.968.864.544.576.816 1.4.816 2.472s-.28 1.896-.84 2.472zM167.279 59V45.608h-4.104v7.272c0 .896-.232 1.592-.696 2.088-.464.496-1.096.744-1.896.744-.784 0-1.408-.248-1.872-.744-.464-.496-.696-1.192-.696-2.088v-7.272h-4.08v7.824c0 1.168.216 2.184.648 3.048.432.864 1.04 1.528 1.824 1.992.784.448 1.688.672 2.712.672.864 0 1.648-.176 2.352-.528.72-.368 1.288-.848 1.704-1.44V59h4.104zm8.708-13.008c-.704.384-1.256.888-1.656 1.512v-1.896h-4.104v19.776h4.104v-8.256c.4.608.952 1.104 1.656 1.488.72.384 1.544.576 2.472.576 1.104 0 2.104-.28 3-.84.896-.576 1.6-1.384 2.112-2.424.528-1.056.792-2.272.792-3.648 0-1.376-.264-2.584-.792-3.624-.512-1.04-1.216-1.84-2.112-2.4-.896-.56-1.896-.84-3-.84-.944 0-1.768.192-2.472.576zm3.336 3.888c.576.576.864 1.376.864 2.4s-.288 1.84-.864 2.448c-.576.592-1.272.888-2.088.888-.816 0-1.512-.296-2.088-.888-.56-.592-.84-1.4-.84-2.424s.28-1.832.84-2.424c.576-.592 1.272-.888 2.088-.888.832 0 1.528.296 2.088.888z" fill="#fff"/><path fill-rule="evenodd" clip-rule="evenodd" d="M111.216 32V0h-32l10 10h11.992v11.992L111.216 32z" fill="#FAFF09"/></svg>